<mxfile host="app.diagrams.net" agent="Mozilla/5.0 (Windows NT 10.0; Win64; x64) AppleWebKit/537.36 (KHTML, like Gecko) Chrome/131.0.0.0 Safari/537.36" scale="1" border="0" version="25.0.3">
  <diagram id="st9X4ph0Z-IFlPcCan_B" name="Страница — 2">
    <mxGraphModel dx="1177" dy="722" grid="1" gridSize="10" guides="1" tooltips="1" connect="1" arrows="1" fold="1" page="1" pageScale="1" pageWidth="827" pageHeight="1169" math="0" shadow="0">
      <root>
        <mxCell id="0" />
        <mxCell id="1" parent="0" />
        <mxCell id="JcG0Pk85M2DYE7z6Ym7G-1" value="Сценарии работы с программной системой" style="swimlane;html=1;childLayout=stackLayout;resizeParent=1;resizeParentMax=0;horizontal=1;startSize=20;horizontalStack=0;" parent="1" vertex="1">
          <mxGeometry x="148" y="280" width="3160" height="980" as="geometry">
            <mxRectangle x="110" y="280" width="310" height="30" as="alternateBounds" />
          </mxGeometry>
        </mxCell>
        <mxCell id="JcG0Pk85M2DYE7z6Ym7G-2" value="Программная система" style="swimlane;html=1;startSize=20;horizontal=0;dashed=1;dashPattern=5 5;" parent="JcG0Pk85M2DYE7z6Ym7G-1" vertex="1">
          <mxGeometry y="20" width="3160" height="960" as="geometry">
            <mxRectangle y="20" width="2090" height="30" as="alternateBounds" />
          </mxGeometry>
        </mxCell>
        <mxCell id="WqVYBYM8VzGyTAsTR9HU-5" value="" style="endArrow=none;dashed=1;html=1;dashPattern=1 3;strokeWidth=2;rounded=0;exitX=0.5;exitY=1;exitDx=0;exitDy=0;exitPerimeter=0;" parent="JcG0Pk85M2DYE7z6Ym7G-2" source="WqVYBYM8VzGyTAsTR9HU-2" edge="1">
          <mxGeometry width="50" height="50" relative="1" as="geometry">
            <mxPoint x="1310" y="849.97" as="sourcePoint" />
            <mxPoint x="1390" y="690" as="targetPoint" />
          </mxGeometry>
        </mxCell>
        <mxCell id="JcG0Pk85M2DYE7z6Ym7G-3" style="edgeStyle=orthogonalEdgeStyle;rounded=0;orthogonalLoop=1;jettySize=auto;html=1;entryX=0;entryY=0.5;entryDx=0;entryDy=0;" parent="JcG0Pk85M2DYE7z6Ym7G-2" source="JcG0Pk85M2DYE7z6Ym7G-4" target="JcG0Pk85M2DYE7z6Ym7G-6" edge="1">
          <mxGeometry relative="1" as="geometry" />
        </mxCell>
        <mxCell id="JcG0Pk85M2DYE7z6Ym7G-4" value="Фотографирование" style="rounded=1;whiteSpace=wrap;html=1;" parent="JcG0Pk85M2DYE7z6Ym7G-2" vertex="1">
          <mxGeometry x="830" y="262.47" width="120" height="105" as="geometry" />
        </mxCell>
        <mxCell id="JcG0Pk85M2DYE7z6Ym7G-5" style="edgeStyle=orthogonalEdgeStyle;rounded=0;orthogonalLoop=1;jettySize=auto;html=1;entryX=0;entryY=0.5;entryDx=0;entryDy=0;" parent="JcG0Pk85M2DYE7z6Ym7G-2" source="JcG0Pk85M2DYE7z6Ym7G-6" target="JcG0Pk85M2DYE7z6Ym7G-8" edge="1">
          <mxGeometry relative="1" as="geometry" />
        </mxCell>
        <mxCell id="JcG0Pk85M2DYE7z6Ym7G-6" value="Обработка изображений" style="rounded=1;whiteSpace=wrap;html=1;" parent="JcG0Pk85M2DYE7z6Ym7G-2" vertex="1">
          <mxGeometry x="1030" y="262.47" width="120" height="105" as="geometry" />
        </mxCell>
        <mxCell id="JcG0Pk85M2DYE7z6Ym7G-7" style="edgeStyle=orthogonalEdgeStyle;rounded=0;orthogonalLoop=1;jettySize=auto;html=1;entryX=0;entryY=0.5;entryDx=0;entryDy=0;" parent="JcG0Pk85M2DYE7z6Ym7G-2" source="JcG0Pk85M2DYE7z6Ym7G-8" target="JcG0Pk85M2DYE7z6Ym7G-10" edge="1">
          <mxGeometry relative="1" as="geometry" />
        </mxCell>
        <mxCell id="JcG0Pk85M2DYE7z6Ym7G-8" value="Сравнение изображений" style="rounded=1;whiteSpace=wrap;html=1;" parent="JcG0Pk85M2DYE7z6Ym7G-2" vertex="1">
          <mxGeometry x="1230" y="262.47" width="120" height="105" as="geometry" />
        </mxCell>
        <mxCell id="JcG0Pk85M2DYE7z6Ym7G-9" style="edgeStyle=orthogonalEdgeStyle;rounded=0;orthogonalLoop=1;jettySize=auto;html=1;entryX=0;entryY=0.5;entryDx=0;entryDy=0;" parent="JcG0Pk85M2DYE7z6Ym7G-2" source="JcG0Pk85M2DYE7z6Ym7G-86" target="JcG0Pk85M2DYE7z6Ym7G-39" edge="1">
          <mxGeometry relative="1" as="geometry">
            <mxPoint x="2070" y="82.47" as="targetPoint" />
          </mxGeometry>
        </mxCell>
        <mxCell id="JcG0Pk85M2DYE7z6Ym7G-88" value="Да" style="edgeLabel;html=1;align=center;verticalAlign=middle;resizable=0;points=[];" parent="JcG0Pk85M2DYE7z6Ym7G-9" vertex="1" connectable="0">
          <mxGeometry x="-0.3863" y="2" relative="1" as="geometry">
            <mxPoint as="offset" />
          </mxGeometry>
        </mxCell>
        <mxCell id="JcG0Pk85M2DYE7z6Ym7G-10" value="Сохранение фото с новой информацией" style="rounded=1;whiteSpace=wrap;html=1;" parent="JcG0Pk85M2DYE7z6Ym7G-2" vertex="1">
          <mxGeometry x="1430" y="262.47" width="120" height="105" as="geometry" />
        </mxCell>
        <mxCell id="JcG0Pk85M2DYE7z6Ym7G-11" style="edgeStyle=orthogonalEdgeStyle;rounded=0;orthogonalLoop=1;jettySize=auto;html=1;entryX=0;entryY=0.5;entryDx=0;entryDy=0;entryPerimeter=0;" parent="JcG0Pk85M2DYE7z6Ym7G-2" source="JcG0Pk85M2DYE7z6Ym7G-12" target="JcG0Pk85M2DYE7z6Ym7G-33" edge="1">
          <mxGeometry relative="1" as="geometry">
            <mxPoint x="1565" y="562.47" as="targetPoint" />
          </mxGeometry>
        </mxCell>
        <mxCell id="JcG0Pk85M2DYE7z6Ym7G-12" value="Запись звука" style="rounded=1;whiteSpace=wrap;html=1;" parent="JcG0Pk85M2DYE7z6Ym7G-2" vertex="1">
          <mxGeometry x="830" y="469.97" width="120" height="105" as="geometry" />
        </mxCell>
        <mxCell id="JcG0Pk85M2DYE7z6Ym7G-20" style="edgeStyle=orthogonalEdgeStyle;rounded=0;orthogonalLoop=1;jettySize=auto;html=1;entryX=0;entryY=0.5;entryDx=0;entryDy=0;entryPerimeter=0;" parent="JcG0Pk85M2DYE7z6Ym7G-2" source="JcG0Pk85M2DYE7z6Ym7G-24" target="JcG0Pk85M2DYE7z6Ym7G-27" edge="1">
          <mxGeometry relative="1" as="geometry">
            <mxPoint x="840" y="219.97000000000003" as="targetPoint" />
          </mxGeometry>
        </mxCell>
        <mxCell id="JcG0Pk85M2DYE7z6Ym7G-21" value="Да" style="edgeLabel;html=1;align=center;verticalAlign=middle;resizable=0;points=[];" parent="JcG0Pk85M2DYE7z6Ym7G-20" vertex="1" connectable="0">
          <mxGeometry x="-0.0906" y="1" relative="1" as="geometry">
            <mxPoint x="1" y="1" as="offset" />
          </mxGeometry>
        </mxCell>
        <mxCell id="JcG0Pk85M2DYE7z6Ym7G-22" style="edgeStyle=elbowEdgeStyle;rounded=0;orthogonalLoop=1;jettySize=auto;html=1;entryX=0.5;entryY=0;entryDx=0;entryDy=0;elbow=vertical;dashed=1;" parent="JcG0Pk85M2DYE7z6Ym7G-2" source="JcG0Pk85M2DYE7z6Ym7G-24" target="JcG0Pk85M2DYE7z6Ym7G-4" edge="1">
          <mxGeometry relative="1" as="geometry">
            <Array as="points">
              <mxPoint x="740" y="179.97000000000003" />
            </Array>
            <mxPoint x="1060" y="29.97" as="targetPoint" />
          </mxGeometry>
        </mxCell>
        <mxCell id="JcG0Pk85M2DYE7z6Ym7G-23" value="Нет" style="edgeLabel;html=1;align=center;verticalAlign=middle;resizable=0;points=[];" parent="JcG0Pk85M2DYE7z6Ym7G-22" vertex="1" connectable="0">
          <mxGeometry x="-0.1602" y="1" relative="1" as="geometry">
            <mxPoint x="-103" y="71" as="offset" />
          </mxGeometry>
        </mxCell>
        <mxCell id="JcG0Pk85M2DYE7z6Ym7G-24" value="Включена функция записи звука?" style="points=[[0.25,0.25,0],[0.5,0,0],[0.75,0.25,0],[1,0.5,0],[0.75,0.75,0],[0.5,1,0],[0.25,0.75,0],[0,0.5,0]];shape=mxgraph.bpmn.gateway2;html=1;verticalLabelPosition=bottom;labelBackgroundColor=#ffffff;verticalAlign=top;align=center;perimeter=rhombusPerimeter;outlineConnect=0;outline=none;symbol=none;gwType=exclusive;" parent="JcG0Pk85M2DYE7z6Ym7G-2" vertex="1">
          <mxGeometry x="550" y="289.97" width="50" height="50" as="geometry" />
        </mxCell>
        <mxCell id="JcG0Pk85M2DYE7z6Ym7G-25" style="edgeStyle=elbowEdgeStyle;rounded=0;orthogonalLoop=1;jettySize=auto;html=1;entryX=0;entryY=0.5;entryDx=0;entryDy=0;exitX=1;exitY=0.5;exitDx=0;exitDy=0;exitPerimeter=0;elbow=vertical;" parent="JcG0Pk85M2DYE7z6Ym7G-2" source="JcG0Pk85M2DYE7z6Ym7G-27" target="JcG0Pk85M2DYE7z6Ym7G-4" edge="1">
          <mxGeometry relative="1" as="geometry">
            <Array as="points" />
            <mxPoint x="1000" y="82.47" as="targetPoint" />
          </mxGeometry>
        </mxCell>
        <mxCell id="JcG0Pk85M2DYE7z6Ym7G-26" style="edgeStyle=elbowEdgeStyle;rounded=0;orthogonalLoop=1;jettySize=auto;html=1;entryX=0;entryY=0.5;entryDx=0;entryDy=0;" parent="JcG0Pk85M2DYE7z6Ym7G-2" source="JcG0Pk85M2DYE7z6Ym7G-27" target="JcG0Pk85M2DYE7z6Ym7G-12" edge="1">
          <mxGeometry relative="1" as="geometry">
            <Array as="points">
              <mxPoint x="715" y="419.97" />
            </Array>
          </mxGeometry>
        </mxCell>
        <mxCell id="JcG0Pk85M2DYE7z6Ym7G-27" value="" style="points=[[0.25,0.25,0],[0.5,0,0],[0.75,0.25,0],[1,0.5,0],[0.75,0.75,0],[0.5,1,0],[0.25,0.75,0],[0,0.5,0]];shape=mxgraph.bpmn.gateway2;html=1;verticalLabelPosition=bottom;labelBackgroundColor=#ffffff;verticalAlign=top;align=center;perimeter=rhombusPerimeter;outlineConnect=0;outline=none;symbol=none;gwType=parallel;" parent="JcG0Pk85M2DYE7z6Ym7G-2" vertex="1">
          <mxGeometry x="690" y="289.97" width="50" height="50" as="geometry" />
        </mxCell>
        <mxCell id="JcG0Pk85M2DYE7z6Ym7G-28" style="edgeStyle=orthogonalEdgeStyle;rounded=0;orthogonalLoop=1;jettySize=auto;html=1;entryX=0;entryY=0.5;entryDx=0;entryDy=0;" parent="JcG0Pk85M2DYE7z6Ym7G-2" source="JcG0Pk85M2DYE7z6Ym7G-29" target="JcG0Pk85M2DYE7z6Ym7G-30" edge="1">
          <mxGeometry relative="1" as="geometry" />
        </mxCell>
        <mxCell id="JcG0Pk85M2DYE7z6Ym7G-29" value="Запуск приложения" style="points=[[0.145,0.145,0],[0.5,0,0],[0.855,0.145,0],[1,0.5,0],[0.855,0.855,0],[0.5,1,0],[0.145,0.855,0],[0,0.5,0]];shape=mxgraph.bpmn.event;html=1;verticalLabelPosition=bottom;labelBackgroundColor=#ffffff;verticalAlign=top;align=center;perimeter=ellipsePerimeter;outlineConnect=0;aspect=fixed;outline=standard;symbol=general;fillColor=#3EFF29;" parent="JcG0Pk85M2DYE7z6Ym7G-2" vertex="1">
          <mxGeometry x="90" y="487.47" width="50" height="50" as="geometry" />
        </mxCell>
        <mxCell id="JcG0Pk85M2DYE7z6Ym7G-30" value="Открытие главного окна" style="rounded=1;whiteSpace=wrap;html=1;" parent="JcG0Pk85M2DYE7z6Ym7G-2" vertex="1">
          <mxGeometry x="220" y="459.97" width="120" height="105" as="geometry" />
        </mxCell>
        <mxCell id="JcG0Pk85M2DYE7z6Ym7G-32" style="edgeStyle=orthogonalEdgeStyle;rounded=0;orthogonalLoop=1;jettySize=auto;html=1;entryX=0;entryY=0.5;entryDx=0;entryDy=0;" parent="JcG0Pk85M2DYE7z6Ym7G-2" source="JcG0Pk85M2DYE7z6Ym7G-33" target="JcG0Pk85M2DYE7z6Ym7G-34" edge="1">
          <mxGeometry relative="1" as="geometry" />
        </mxCell>
        <mxCell id="JcG0Pk85M2DYE7z6Ym7G-33" value="Ожидание сохранения нового фото" style="points=[[0.145,0.145,0],[0.5,0,0],[0.855,0.145,0],[1,0.5,0],[0.855,0.855,0],[0.5,1,0],[0.145,0.855,0],[0,0.5,0]];shape=mxgraph.bpmn.event;html=1;verticalLabelPosition=bottom;labelBackgroundColor=#ffffff;verticalAlign=top;align=center;perimeter=ellipsePerimeter;outlineConnect=0;aspect=fixed;outline=standard;symbol=timer;" parent="JcG0Pk85M2DYE7z6Ym7G-2" vertex="1">
          <mxGeometry x="1120" y="497.47" width="50" height="50" as="geometry" />
        </mxCell>
        <mxCell id="JcG0Pk85M2DYE7z6Ym7G-34" value="Запись в json файл времени когда сделано фото" style="rounded=1;whiteSpace=wrap;html=1;" parent="JcG0Pk85M2DYE7z6Ym7G-2" vertex="1">
          <mxGeometry x="1430" y="469.97" width="120" height="105" as="geometry" />
        </mxCell>
        <mxCell id="JcG0Pk85M2DYE7z6Ym7G-35" value="" style="endArrow=open;endSize=12;dashed=1;html=1;rounded=0;exitX=0.5;exitY=1;exitDx=0;exitDy=0;entryX=0.5;entryY=0;entryDx=0;entryDy=0;" parent="JcG0Pk85M2DYE7z6Ym7G-2" source="JcG0Pk85M2DYE7z6Ym7G-10" target="JcG0Pk85M2DYE7z6Ym7G-34" edge="1">
          <mxGeometry width="160" relative="1" as="geometry">
            <mxPoint x="1730" y="272.47" as="sourcePoint" />
            <mxPoint x="1810" y="232.47000000000003" as="targetPoint" />
          </mxGeometry>
        </mxCell>
        <mxCell id="JcG0Pk85M2DYE7z6Ym7G-39" value="Открытие окна редактирования файла" style="rounded=1;whiteSpace=wrap;html=1;" parent="JcG0Pk85M2DYE7z6Ym7G-2" vertex="1">
          <mxGeometry x="1760" y="262.47" width="120" height="105" as="geometry" />
        </mxCell>
        <mxCell id="JcG0Pk85M2DYE7z6Ym7G-80" style="edgeStyle=orthogonalEdgeStyle;rounded=0;orthogonalLoop=1;jettySize=auto;html=1;" parent="JcG0Pk85M2DYE7z6Ym7G-2" source="JcG0Pk85M2DYE7z6Ym7G-40" target="JcG0Pk85M2DYE7z6Ym7G-76" edge="1">
          <mxGeometry relative="1" as="geometry" />
        </mxCell>
        <mxCell id="JcG0Pk85M2DYE7z6Ym7G-40" value="Сохранение готового файла" style="rounded=1;whiteSpace=wrap;html=1;" parent="JcG0Pk85M2DYE7z6Ym7G-2" vertex="1">
          <mxGeometry x="2400" y="262.47" width="120" height="105" as="geometry" />
        </mxCell>
        <mxCell id="JcG0Pk85M2DYE7z6Ym7G-41" style="edgeStyle=orthogonalEdgeStyle;rounded=0;orthogonalLoop=1;jettySize=auto;html=1;" parent="JcG0Pk85M2DYE7z6Ym7G-2" source="JcG0Pk85M2DYE7z6Ym7G-74" target="JcG0Pk85M2DYE7z6Ym7G-40" edge="1">
          <mxGeometry relative="1" as="geometry">
            <mxPoint x="2830" y="82.47" as="sourcePoint" />
          </mxGeometry>
        </mxCell>
        <mxCell id="JcG0Pk85M2DYE7z6Ym7G-43" style="edgeStyle=orthogonalEdgeStyle;rounded=0;orthogonalLoop=1;jettySize=auto;html=1;" parent="JcG0Pk85M2DYE7z6Ym7G-2" source="JcG0Pk85M2DYE7z6Ym7G-44" target="JcG0Pk85M2DYE7z6Ym7G-81" edge="1">
          <mxGeometry relative="1" as="geometry">
            <mxPoint x="1161" y="752.47" as="targetPoint" />
          </mxGeometry>
        </mxCell>
        <mxCell id="JcG0Pk85M2DYE7z6Ym7G-44" value="Открытие меню готовых файлов" style="rounded=1;whiteSpace=wrap;html=1;" parent="JcG0Pk85M2DYE7z6Ym7G-2" vertex="1">
          <mxGeometry x="780" y="699.97" width="120" height="105" as="geometry" />
        </mxCell>
        <mxCell id="JcG0Pk85M2DYE7z6Ym7G-45" style="edgeStyle=orthogonalEdgeStyle;rounded=0;orthogonalLoop=1;jettySize=auto;html=1;exitX=1;exitY=0.5;exitDx=0;exitDy=0;exitPerimeter=0;" parent="JcG0Pk85M2DYE7z6Ym7G-2" source="JcG0Pk85M2DYE7z6Ym7G-81" target="JcG0Pk85M2DYE7z6Ym7G-48" edge="1">
          <mxGeometry relative="1" as="geometry">
            <mxPoint x="1281" y="752.47" as="sourcePoint" />
          </mxGeometry>
        </mxCell>
        <mxCell id="JcG0Pk85M2DYE7z6Ym7G-48" value="Открытие файла для просмотра с возможностью прослушать аудиозапись лекции по сохранённым временным меткам для каждого фото" style="rounded=1;whiteSpace=wrap;html=1;" parent="JcG0Pk85M2DYE7z6Ym7G-2" vertex="1">
          <mxGeometry x="1330" y="689.97" width="120" height="125" as="geometry" />
        </mxCell>
        <mxCell id="JcG0Pk85M2DYE7z6Ym7G-49" style="edgeStyle=orthogonalEdgeStyle;rounded=0;orthogonalLoop=1;jettySize=auto;html=1;" parent="JcG0Pk85M2DYE7z6Ym7G-2" source="JcG0Pk85M2DYE7z6Ym7G-70" target="JcG0Pk85M2DYE7z6Ym7G-39" edge="1">
          <mxGeometry relative="1" as="geometry" />
        </mxCell>
        <mxCell id="JcG0Pk85M2DYE7z6Ym7G-59" value="" style="points=[[0.25,0.25,0],[0.5,0,0],[0.75,0.25,0],[1,0.5,0],[0.75,0.75,0],[0.5,1,0],[0.25,0.75,0],[0,0.5,0]];shape=mxgraph.bpmn.gateway2;html=1;verticalLabelPosition=bottom;labelBackgroundColor=#ffffff;verticalAlign=top;align=center;perimeter=rhombusPerimeter;outlineConnect=0;outline=none;symbol=none;gwType=exclusive;" parent="JcG0Pk85M2DYE7z6Ym7G-2" vertex="1">
          <mxGeometry x="420" y="487.47" width="50" height="50" as="geometry" />
        </mxCell>
        <mxCell id="JcG0Pk85M2DYE7z6Ym7G-60" style="edgeStyle=orthogonalEdgeStyle;rounded=0;orthogonalLoop=1;jettySize=auto;html=1;entryX=0;entryY=0.5;entryDx=0;entryDy=0;entryPerimeter=0;" parent="JcG0Pk85M2DYE7z6Ym7G-2" source="JcG0Pk85M2DYE7z6Ym7G-30" target="JcG0Pk85M2DYE7z6Ym7G-59" edge="1">
          <mxGeometry relative="1" as="geometry" />
        </mxCell>
        <mxCell id="JcG0Pk85M2DYE7z6Ym7G-62" value="Пользователь нажал&amp;nbsp;&lt;div&gt;кнопку записи лекции&lt;/div&gt;" style="points=[[0.145,0.145,0],[0.5,0,0],[0.855,0.145,0],[1,0.5,0],[0.855,0.855,0],[0.5,1,0],[0.145,0.855,0],[0,0.5,0]];shape=mxgraph.bpmn.event;html=1;verticalLabelPosition=bottom;labelBackgroundColor=#ffffff;verticalAlign=top;align=center;perimeter=ellipsePerimeter;outlineConnect=0;aspect=fixed;outline=standard;symbol=general;fillColor=#FFFF00;" parent="JcG0Pk85M2DYE7z6Ym7G-2" vertex="1">
          <mxGeometry x="550" y="487.47" width="50" height="50" as="geometry" />
        </mxCell>
        <mxCell id="JcG0Pk85M2DYE7z6Ym7G-68" style="edgeStyle=orthogonalEdgeStyle;rounded=0;orthogonalLoop=1;jettySize=auto;html=1;entryX=0;entryY=0.5;entryDx=0;entryDy=0;" parent="JcG0Pk85M2DYE7z6Ym7G-2" source="JcG0Pk85M2DYE7z6Ym7G-63" target="JcG0Pk85M2DYE7z6Ym7G-44" edge="1">
          <mxGeometry relative="1" as="geometry" />
        </mxCell>
        <mxCell id="JcG0Pk85M2DYE7z6Ym7G-63" value="Пользователь нажал кнопку&amp;nbsp;&lt;div&gt;открытия меню готовых файлов&lt;/div&gt;" style="points=[[0.145,0.145,0],[0.5,0,0],[0.855,0.145,0],[1,0.5,0],[0.855,0.855,0],[0.5,1,0],[0.145,0.855,0],[0,0.5,0]];shape=mxgraph.bpmn.event;html=1;verticalLabelPosition=bottom;labelBackgroundColor=#ffffff;verticalAlign=top;align=center;perimeter=ellipsePerimeter;outlineConnect=0;aspect=fixed;outline=standard;symbol=general;fillColor=#FFFF00;" parent="JcG0Pk85M2DYE7z6Ym7G-2" vertex="1">
          <mxGeometry x="550" y="727.47" width="50" height="50" as="geometry" />
        </mxCell>
        <mxCell id="JcG0Pk85M2DYE7z6Ym7G-64" style="edgeStyle=elbowEdgeStyle;rounded=0;orthogonalLoop=1;jettySize=auto;html=1;entryX=0;entryY=0.5;entryDx=0;entryDy=0;entryPerimeter=0;exitX=1;exitY=0.5;exitDx=0;exitDy=0;exitPerimeter=0;fillColor=#FFFF00;" parent="JcG0Pk85M2DYE7z6Ym7G-2" source="JcG0Pk85M2DYE7z6Ym7G-59" target="JcG0Pk85M2DYE7z6Ym7G-62" edge="1">
          <mxGeometry relative="1" as="geometry">
            <Array as="points">
              <mxPoint x="550" y="512.97" />
            </Array>
          </mxGeometry>
        </mxCell>
        <mxCell id="JcG0Pk85M2DYE7z6Ym7G-65" style="edgeStyle=elbowEdgeStyle;rounded=0;orthogonalLoop=1;jettySize=auto;html=1;entryX=0;entryY=0.5;entryDx=0;entryDy=0;entryPerimeter=0;" parent="JcG0Pk85M2DYE7z6Ym7G-2" source="JcG0Pk85M2DYE7z6Ym7G-59" target="JcG0Pk85M2DYE7z6Ym7G-63" edge="1">
          <mxGeometry relative="1" as="geometry">
            <Array as="points">
              <mxPoint x="445" y="619.97" />
            </Array>
          </mxGeometry>
        </mxCell>
        <mxCell id="JcG0Pk85M2DYE7z6Ym7G-67" style="edgeStyle=orthogonalEdgeStyle;rounded=0;orthogonalLoop=1;jettySize=auto;html=1;entryX=0.5;entryY=1;entryDx=0;entryDy=0;entryPerimeter=0;fillColor=#FFFF00;" parent="JcG0Pk85M2DYE7z6Ym7G-2" source="JcG0Pk85M2DYE7z6Ym7G-62" target="JcG0Pk85M2DYE7z6Ym7G-24" edge="1">
          <mxGeometry relative="1" as="geometry" />
        </mxCell>
        <mxCell id="JcG0Pk85M2DYE7z6Ym7G-70" value="&lt;div&gt;&lt;span style=&quot;text-wrap-mode: wrap; background-color: rgb(251, 251, 251);&quot;&gt;Пользователь н&lt;/span&gt;&lt;span style=&quot;background-color: rgb(251, 251, 251); text-wrap-mode: wrap;&quot;&gt;ажал кнопку для перехода к редактированию файла&lt;/span&gt;&lt;/div&gt;" style="points=[[0.145,0.145,0],[0.5,0,0],[0.855,0.145,0],[1,0.5,0],[0.855,0.855,0],[0.5,1,0],[0.145,0.855,0],[0,0.5,0]];shape=mxgraph.bpmn.event;html=1;verticalLabelPosition=bottom;labelBackgroundColor=#ffffff;verticalAlign=top;align=center;perimeter=ellipsePerimeter;outlineConnect=0;aspect=fixed;outline=standard;symbol=general;fillColor=#FFFF00;" parent="JcG0Pk85M2DYE7z6Ym7G-2" vertex="1">
          <mxGeometry x="1652" y="639.97" width="50" height="50" as="geometry" />
        </mxCell>
        <mxCell id="JcG0Pk85M2DYE7z6Ym7G-74" value="&lt;span style=&quot;text-wrap-mode: wrap; background-color: rgb(251, 251, 251);&quot;&gt;Пользователь нажал&amp;nbsp;&lt;/span&gt;&lt;div&gt;&lt;span style=&quot;text-wrap-mode: wrap; background-color: rgb(251, 251, 251);&quot;&gt;кнопку для сохранения файла&lt;/span&gt;&lt;/div&gt;" style="points=[[0.145,0.145,0],[0.5,0,0],[0.855,0.145,0],[1,0.5,0],[0.855,0.855,0],[0.5,1,0],[0.145,0.855,0],[0,0.5,0]];shape=mxgraph.bpmn.event;html=1;verticalLabelPosition=bottom;labelBackgroundColor=#ffffff;verticalAlign=top;align=center;perimeter=ellipsePerimeter;outlineConnect=0;aspect=fixed;outline=standard;symbol=general;fillColor=#FFFF00;" parent="JcG0Pk85M2DYE7z6Ym7G-2" vertex="1">
          <mxGeometry x="2270" y="289.97" width="50" height="50" as="geometry" />
        </mxCell>
        <mxCell id="JcG0Pk85M2DYE7z6Ym7G-75" value="" style="edgeStyle=orthogonalEdgeStyle;rounded=0;orthogonalLoop=1;jettySize=auto;html=1;entryX=0;entryY=0.5;entryDx=0;entryDy=0;entryPerimeter=0;" parent="JcG0Pk85M2DYE7z6Ym7G-2" source="JcG0Pk85M2DYE7z6Ym7G-39" target="WqVYBYM8VzGyTAsTR9HU-6" edge="1">
          <mxGeometry relative="1" as="geometry">
            <mxPoint x="2440" y="382.97" as="sourcePoint" />
            <mxPoint x="2520" y="382.97" as="targetPoint" />
          </mxGeometry>
        </mxCell>
        <mxCell id="JcG0Pk85M2DYE7z6Ym7G-76" value="Открытие окна сохранения" style="rounded=1;whiteSpace=wrap;html=1;" parent="JcG0Pk85M2DYE7z6Ym7G-2" vertex="1">
          <mxGeometry x="2610" y="262.47" width="120" height="105" as="geometry" />
        </mxCell>
        <mxCell id="JcG0Pk85M2DYE7z6Ym7G-77" value="json файл с временными метками" style="shape=mxgraph.bpmn.data;labelPosition=center;verticalLabelPosition=bottom;align=center;verticalAlign=top;whiteSpace=wrap;size=15;html=1;" parent="JcG0Pk85M2DYE7z6Ym7G-2" vertex="1">
          <mxGeometry x="1630" y="493.72" width="40" height="57.5" as="geometry" />
        </mxCell>
        <mxCell id="JcG0Pk85M2DYE7z6Ym7G-79" value="" style="endArrow=none;dashed=1;html=1;dashPattern=1 3;strokeWidth=2;rounded=0;exitX=1;exitY=0.5;exitDx=0;exitDy=0;entryX=0;entryY=0.5;entryDx=0;entryDy=0;entryPerimeter=0;" parent="JcG0Pk85M2DYE7z6Ym7G-2" source="JcG0Pk85M2DYE7z6Ym7G-34" target="JcG0Pk85M2DYE7z6Ym7G-77" edge="1">
          <mxGeometry width="50" height="50" relative="1" as="geometry">
            <mxPoint x="1905" y="529.97" as="sourcePoint" />
            <mxPoint x="1955" y="479.97" as="targetPoint" />
          </mxGeometry>
        </mxCell>
        <mxCell id="JcG0Pk85M2DYE7z6Ym7G-81" value="&lt;div&gt;&lt;span style=&quot;text-wrap-mode: wrap; background-color: rgb(251, 251, 251);&quot;&gt;Пользователь открыл конкретный файл&lt;/span&gt;&lt;/div&gt;" style="points=[[0.145,0.145,0],[0.5,0,0],[0.855,0.145,0],[1,0.5,0],[0.855,0.855,0],[0.5,1,0],[0.145,0.855,0],[0,0.5,0]];shape=mxgraph.bpmn.event;html=1;verticalLabelPosition=bottom;labelBackgroundColor=#ffffff;verticalAlign=top;align=center;perimeter=ellipsePerimeter;outlineConnect=0;aspect=fixed;outline=standard;symbol=general;fillColor=#FFFF00;" parent="JcG0Pk85M2DYE7z6Ym7G-2" vertex="1">
          <mxGeometry x="1085.5" y="727.47" width="50" height="50" as="geometry" />
        </mxCell>
        <mxCell id="JcG0Pk85M2DYE7z6Ym7G-84" value="Файл с фото и аудио лекции" style="shape=mxgraph.bpmn.data;labelPosition=center;verticalLabelPosition=bottom;align=center;verticalAlign=top;whiteSpace=wrap;size=15;html=1;" parent="JcG0Pk85M2DYE7z6Ym7G-2" vertex="1">
          <mxGeometry x="2440" y="429.97" width="40" height="57.5" as="geometry" />
        </mxCell>
        <mxCell id="JcG0Pk85M2DYE7z6Ym7G-85" value="" style="endArrow=none;dashed=1;html=1;dashPattern=1 3;strokeWidth=2;rounded=0;exitX=0.5;exitY=1;exitDx=0;exitDy=0;entryX=0.5;entryY=0;entryDx=0;entryDy=0;entryPerimeter=0;" parent="JcG0Pk85M2DYE7z6Ym7G-2" source="JcG0Pk85M2DYE7z6Ym7G-40" target="JcG0Pk85M2DYE7z6Ym7G-84" edge="1">
          <mxGeometry width="50" height="50" relative="1" as="geometry">
            <mxPoint x="2180" y="282.97" as="sourcePoint" />
            <mxPoint x="2275" y="282.97" as="targetPoint" />
          </mxGeometry>
        </mxCell>
        <mxCell id="JcG0Pk85M2DYE7z6Ym7G-87" value="" style="edgeStyle=orthogonalEdgeStyle;rounded=0;orthogonalLoop=1;jettySize=auto;html=1;" parent="JcG0Pk85M2DYE7z6Ym7G-2" source="JcG0Pk85M2DYE7z6Ym7G-10" target="JcG0Pk85M2DYE7z6Ym7G-86" edge="1">
          <mxGeometry relative="1" as="geometry">
            <mxPoint x="1975" y="614.47" as="sourcePoint" />
            <mxPoint x="2175" y="614.97" as="targetPoint" />
          </mxGeometry>
        </mxCell>
        <mxCell id="JcG0Pk85M2DYE7z6Ym7G-89" style="edgeStyle=orthogonalEdgeStyle;rounded=0;orthogonalLoop=1;jettySize=auto;html=1;dashed=1;entryX=0;entryY=0.5;entryDx=0;entryDy=0;entryPerimeter=0;" parent="JcG0Pk85M2DYE7z6Ym7G-2" source="JcG0Pk85M2DYE7z6Ym7G-86" target="JcG0Pk85M2DYE7z6Ym7G-24" edge="1">
          <mxGeometry relative="1" as="geometry">
            <mxPoint x="611.38525390625" y="139.97000000000003" as="targetPoint" />
            <Array as="points">
              <mxPoint x="1655" y="99.97" />
              <mxPoint x="470" y="99.97" />
              <mxPoint x="470" y="314.97" />
            </Array>
          </mxGeometry>
        </mxCell>
        <mxCell id="JcG0Pk85M2DYE7z6Ym7G-90" value="Нет" style="edgeLabel;html=1;align=center;verticalAlign=middle;resizable=0;points=[];" parent="JcG0Pk85M2DYE7z6Ym7G-89" vertex="1" connectable="0">
          <mxGeometry x="-0.7478" y="2" relative="1" as="geometry">
            <mxPoint x="20" y="143" as="offset" />
          </mxGeometry>
        </mxCell>
        <mxCell id="JcG0Pk85M2DYE7z6Ym7G-86" value="&lt;span style=&quot;text-wrap-mode: wrap; background-color: rgb(251, 251, 251);&quot;&gt;Пользователь остановил запись лекции?&lt;/span&gt;" style="points=[[0.25,0.25,0],[0.5,0,0],[0.75,0.25,0],[1,0.5,0],[0.75,0.75,0],[0.5,1,0],[0.25,0.75,0],[0,0.5,0]];shape=mxgraph.bpmn.gateway2;html=1;verticalLabelPosition=bottom;labelBackgroundColor=#ffffff;verticalAlign=top;align=center;perimeter=rhombusPerimeter;outlineConnect=0;outline=none;symbol=none;gwType=exclusive;" parent="JcG0Pk85M2DYE7z6Ym7G-2" vertex="1">
          <mxGeometry x="1630" y="289.97" width="50" height="50" as="geometry" />
        </mxCell>
        <mxCell id="WqVYBYM8VzGyTAsTR9HU-8" style="edgeStyle=orthogonalEdgeStyle;rounded=0;orthogonalLoop=1;jettySize=auto;html=1;entryX=0;entryY=0.5;entryDx=0;entryDy=0;" parent="JcG0Pk85M2DYE7z6Ym7G-2" source="WqVYBYM8VzGyTAsTR9HU-6" target="WqVYBYM8VzGyTAsTR9HU-7" edge="1">
          <mxGeometry relative="1" as="geometry" />
        </mxCell>
        <mxCell id="WqVYBYM8VzGyTAsTR9HU-6" value="&lt;span style=&quot;text-wrap-mode: wrap; background-color: rgb(251, 251, 251);&quot;&gt;Пользователь изменил&amp;nbsp;&lt;/span&gt;&lt;div&gt;&lt;span style=&quot;text-wrap-mode: wrap; background-color: rgb(251, 251, 251);&quot;&gt;фото&lt;/span&gt;&lt;/div&gt;" style="points=[[0.145,0.145,0],[0.5,0,0],[0.855,0.145,0],[1,0.5,0],[0.855,0.855,0],[0.5,1,0],[0.145,0.855,0],[0,0.5,0]];shape=mxgraph.bpmn.event;html=1;verticalLabelPosition=bottom;labelBackgroundColor=#ffffff;verticalAlign=top;align=center;perimeter=ellipsePerimeter;outlineConnect=0;aspect=fixed;outline=standard;symbol=general;fillColor=#FFFF00;" parent="JcG0Pk85M2DYE7z6Ym7G-2" vertex="1">
          <mxGeometry x="1950" y="289.97" width="50" height="50" as="geometry" />
        </mxCell>
        <mxCell id="WqVYBYM8VzGyTAsTR9HU-7" value="Изменённое фото сохранились как новая версия оригинального" style="rounded=1;whiteSpace=wrap;html=1;" parent="JcG0Pk85M2DYE7z6Ym7G-2" vertex="1">
          <mxGeometry x="2070" y="262.47" width="120" height="105" as="geometry" />
        </mxCell>
        <mxCell id="WqVYBYM8VzGyTAsTR9HU-9" style="edgeStyle=orthogonalEdgeStyle;rounded=0;orthogonalLoop=1;jettySize=auto;html=1;entryX=0;entryY=0.5;entryDx=0;entryDy=0;entryPerimeter=0;" parent="JcG0Pk85M2DYE7z6Ym7G-2" source="WqVYBYM8VzGyTAsTR9HU-7" target="JcG0Pk85M2DYE7z6Ym7G-74" edge="1">
          <mxGeometry relative="1" as="geometry" />
        </mxCell>
        <mxCell id="WqVYBYM8VzGyTAsTR9HU-10" value="&lt;span style=&quot;text-wrap-mode: wrap; background-color: rgb(251, 251, 251);&quot;&gt;Пользователь закрыл приложение&amp;nbsp;&lt;/span&gt;" style="points=[[0.145,0.145,0],[0.5,0,0],[0.855,0.145,0],[1,0.5,0],[0.855,0.855,0],[0.5,1,0],[0.145,0.855,0],[0,0.5,0]];shape=mxgraph.bpmn.event;html=1;verticalLabelPosition=bottom;labelBackgroundColor=#ffffff;verticalAlign=top;align=center;perimeter=ellipsePerimeter;outlineConnect=0;aspect=fixed;outline=standard;symbol=general;fillColor=#FFFF00;" parent="JcG0Pk85M2DYE7z6Ym7G-2" vertex="1">
          <mxGeometry x="2940" y="289.95000000000005" width="50" height="50" as="geometry" />
        </mxCell>
        <mxCell id="asT0IU54cs3RfqnLcP0r-9" style="edgeStyle=orthogonalEdgeStyle;rounded=0;orthogonalLoop=1;jettySize=auto;html=1;entryX=0.5;entryY=0;entryDx=0;entryDy=0;" parent="JcG0Pk85M2DYE7z6Ym7G-2" source="WqVYBYM8VzGyTAsTR9HU-11" target="JcG0Pk85M2DYE7z6Ym7G-30" edge="1">
          <mxGeometry relative="1" as="geometry">
            <Array as="points">
              <mxPoint x="2965" y="20" />
              <mxPoint x="280" y="20" />
            </Array>
          </mxGeometry>
        </mxCell>
        <mxCell id="WqVYBYM8VzGyTAsTR9HU-11" value="&lt;span style=&quot;text-wrap-mode: wrap; background-color: rgb(251, 251, 251);&quot;&gt;Пользователь нажал кнопку для перехода в главное окно&lt;/span&gt;" style="points=[[0.145,0.145,0],[0.5,0,0],[0.855,0.145,0],[1,0.5,0],[0.855,0.855,0],[0.5,1,0],[0.145,0.855,0],[0,0.5,0]];shape=mxgraph.bpmn.event;html=1;verticalLabelPosition=bottom;labelBackgroundColor=#ffffff;verticalAlign=top;align=center;perimeter=ellipsePerimeter;outlineConnect=0;aspect=fixed;outline=standard;symbol=general;fillColor=#FFFF00;" parent="JcG0Pk85M2DYE7z6Ym7G-2" vertex="1">
          <mxGeometry x="2940" y="149.98" width="50" height="50" as="geometry" />
        </mxCell>
        <mxCell id="asT0IU54cs3RfqnLcP0r-10" style="edgeStyle=elbowEdgeStyle;rounded=0;orthogonalLoop=1;jettySize=auto;html=1;entryX=0.5;entryY=1;entryDx=0;entryDy=0;exitX=0.5;exitY=1;exitDx=0;exitDy=0;exitPerimeter=0;" parent="JcG0Pk85M2DYE7z6Ym7G-2" source="WqVYBYM8VzGyTAsTR9HU-12" target="JcG0Pk85M2DYE7z6Ym7G-48" edge="1">
          <mxGeometry relative="1" as="geometry">
            <mxPoint x="3062" y="510" as="sourcePoint" />
            <mxPoint x="1402" y="920" as="targetPoint" />
            <Array as="points">
              <mxPoint x="2182" y="900" />
              <mxPoint x="3052" y="640" />
              <mxPoint x="2100" y="820" />
              <mxPoint x="1480" y="820" />
              <mxPoint x="2630" y="820" />
            </Array>
          </mxGeometry>
        </mxCell>
        <mxCell id="WqVYBYM8VzGyTAsTR9HU-12" value="&lt;span style=&quot;text-wrap-mode: wrap; background-color: rgb(251, 251, 251);&quot;&gt;Пользователь нажал кнопку для открытия сохранённого файла в режиме просмотре&lt;/span&gt;" style="points=[[0.145,0.145,0],[0.5,0,0],[0.855,0.145,0],[1,0.5,0],[0.855,0.855,0],[0.5,1,0],[0.145,0.855,0],[0,0.5,0]];shape=mxgraph.bpmn.event;html=1;verticalLabelPosition=bottom;labelBackgroundColor=#ffffff;verticalAlign=top;align=center;perimeter=ellipsePerimeter;outlineConnect=0;aspect=fixed;outline=standard;symbol=general;fillColor=#FFFF00;" parent="JcG0Pk85M2DYE7z6Ym7G-2" vertex="1">
          <mxGeometry x="2940" y="429.95000000000005" width="50" height="50" as="geometry" />
        </mxCell>
        <mxCell id="asT0IU54cs3RfqnLcP0r-1" value="Приложение закрыто" style="points=[[0.145,0.145,0],[0.5,0,0],[0.855,0.145,0],[1,0.5,0],[0.855,0.855,0],[0.5,1,0],[0.145,0.855,0],[0,0.5,0]];shape=mxgraph.bpmn.event;html=1;verticalLabelPosition=bottom;labelBackgroundColor=#ffffff;verticalAlign=top;align=center;perimeter=ellipsePerimeter;outlineConnect=0;aspect=fixed;outline=end;symbol=terminate2;fillColor=#FF4C59;" parent="JcG0Pk85M2DYE7z6Ym7G-2" vertex="1">
          <mxGeometry x="3070" y="289.95000000000005" width="50" height="50" as="geometry" />
        </mxCell>
        <mxCell id="asT0IU54cs3RfqnLcP0r-2" style="edgeStyle=orthogonalEdgeStyle;rounded=0;orthogonalLoop=1;jettySize=auto;html=1;entryX=0;entryY=0.5;entryDx=0;entryDy=0;entryPerimeter=0;" parent="JcG0Pk85M2DYE7z6Ym7G-2" source="WqVYBYM8VzGyTAsTR9HU-10" target="asT0IU54cs3RfqnLcP0r-1" edge="1">
          <mxGeometry relative="1" as="geometry" />
        </mxCell>
        <mxCell id="asT0IU54cs3RfqnLcP0r-4" value="" style="points=[[0.25,0.25,0],[0.5,0,0],[0.75,0.25,0],[1,0.5,0],[0.75,0.75,0],[0.5,1,0],[0.25,0.75,0],[0,0.5,0]];shape=mxgraph.bpmn.gateway2;html=1;verticalLabelPosition=bottom;labelBackgroundColor=#ffffff;verticalAlign=top;align=center;perimeter=rhombusPerimeter;outlineConnect=0;outline=none;symbol=none;gwType=exclusive;" parent="JcG0Pk85M2DYE7z6Ym7G-2" vertex="1">
          <mxGeometry x="2810" y="289.97" width="50" height="50" as="geometry" />
        </mxCell>
        <mxCell id="asT0IU54cs3RfqnLcP0r-5" style="edgeStyle=orthogonalEdgeStyle;rounded=0;orthogonalLoop=1;jettySize=auto;html=1;entryX=0;entryY=0.5;entryDx=0;entryDy=0;entryPerimeter=0;" parent="JcG0Pk85M2DYE7z6Ym7G-2" source="JcG0Pk85M2DYE7z6Ym7G-76" target="asT0IU54cs3RfqnLcP0r-4" edge="1">
          <mxGeometry relative="1" as="geometry" />
        </mxCell>
        <mxCell id="asT0IU54cs3RfqnLcP0r-6" style="edgeStyle=orthogonalEdgeStyle;rounded=0;orthogonalLoop=1;jettySize=auto;html=1;entryX=0;entryY=0.5;entryDx=0;entryDy=0;entryPerimeter=0;" parent="JcG0Pk85M2DYE7z6Ym7G-2" source="asT0IU54cs3RfqnLcP0r-4" target="WqVYBYM8VzGyTAsTR9HU-11" edge="1">
          <mxGeometry relative="1" as="geometry">
            <Array as="points">
              <mxPoint x="2835" y="175" />
            </Array>
          </mxGeometry>
        </mxCell>
        <mxCell id="asT0IU54cs3RfqnLcP0r-7" style="edgeStyle=orthogonalEdgeStyle;rounded=0;orthogonalLoop=1;jettySize=auto;html=1;entryX=0;entryY=0.5;entryDx=0;entryDy=0;entryPerimeter=0;" parent="JcG0Pk85M2DYE7z6Ym7G-2" source="asT0IU54cs3RfqnLcP0r-4" target="WqVYBYM8VzGyTAsTR9HU-10" edge="1">
          <mxGeometry relative="1" as="geometry" />
        </mxCell>
        <mxCell id="asT0IU54cs3RfqnLcP0r-8" style="edgeStyle=orthogonalEdgeStyle;rounded=0;orthogonalLoop=1;jettySize=auto;html=1;entryX=0;entryY=0.5;entryDx=0;entryDy=0;entryPerimeter=0;" parent="JcG0Pk85M2DYE7z6Ym7G-2" source="asT0IU54cs3RfqnLcP0r-4" target="WqVYBYM8VzGyTAsTR9HU-12" edge="1">
          <mxGeometry relative="1" as="geometry">
            <Array as="points">
              <mxPoint x="2835" y="455" />
            </Array>
          </mxGeometry>
        </mxCell>
        <mxCell id="WqVYBYM8VzGyTAsTR9HU-2" value="Файл с фото и аудио лекции" style="shape=mxgraph.bpmn.data;labelPosition=center;verticalLabelPosition=bottom;align=center;verticalAlign=top;whiteSpace=wrap;size=15;html=1;" parent="JcG0Pk85M2DYE7z6Ym7G-2" vertex="1">
          <mxGeometry x="1282" y="574.97" width="40" height="57.5" as="geometry" />
        </mxCell>
        <mxCell id="asT0IU54cs3RfqnLcP0r-18" value="&lt;span style=&quot;text-wrap-mode: wrap; background-color: rgb(251, 251, 251);&quot;&gt;Пользователь закрыл приложение&amp;nbsp;&lt;/span&gt;" style="points=[[0.145,0.145,0],[0.5,0,0],[0.855,0.145,0],[1,0.5,0],[0.855,0.855,0],[0.5,1,0],[0.145,0.855,0],[0,0.5,0]];shape=mxgraph.bpmn.event;html=1;verticalLabelPosition=bottom;labelBackgroundColor=#ffffff;verticalAlign=top;align=center;perimeter=ellipsePerimeter;outlineConnect=0;aspect=fixed;outline=standard;symbol=general;fillColor=#FFFF00;" parent="JcG0Pk85M2DYE7z6Ym7G-2" vertex="1">
          <mxGeometry x="1652" y="780" width="50" height="50" as="geometry" />
        </mxCell>
        <mxCell id="asT0IU54cs3RfqnLcP0r-19" value="Приложение закрыто" style="points=[[0.145,0.145,0],[0.5,0,0],[0.855,0.145,0],[1,0.5,0],[0.855,0.855,0],[0.5,1,0],[0.145,0.855,0],[0,0.5,0]];shape=mxgraph.bpmn.event;html=1;verticalLabelPosition=bottom;labelBackgroundColor=#ffffff;verticalAlign=top;align=center;perimeter=ellipsePerimeter;outlineConnect=0;aspect=fixed;outline=end;symbol=terminate2;fillColor=#FF4C59;" parent="JcG0Pk85M2DYE7z6Ym7G-2" vertex="1">
          <mxGeometry x="1795" y="780" width="50" height="50" as="geometry" />
        </mxCell>
        <mxCell id="asT0IU54cs3RfqnLcP0r-20" style="edgeStyle=orthogonalEdgeStyle;rounded=0;orthogonalLoop=1;jettySize=auto;html=1;entryX=0;entryY=0.5;entryDx=0;entryDy=0;entryPerimeter=0;" parent="JcG0Pk85M2DYE7z6Ym7G-2" source="asT0IU54cs3RfqnLcP0r-18" target="asT0IU54cs3RfqnLcP0r-19" edge="1">
          <mxGeometry relative="1" as="geometry" />
        </mxCell>
        <mxCell id="asT0IU54cs3RfqnLcP0r-21" value="" style="points=[[0.25,0.25,0],[0.5,0,0],[0.75,0.25,0],[1,0.5,0],[0.75,0.75,0],[0.5,1,0],[0.25,0.75,0],[0,0.5,0]];shape=mxgraph.bpmn.gateway2;html=1;verticalLabelPosition=bottom;labelBackgroundColor=#ffffff;verticalAlign=top;align=center;perimeter=rhombusPerimeter;outlineConnect=0;outline=none;symbol=none;gwType=exclusive;" parent="JcG0Pk85M2DYE7z6Ym7G-2" vertex="1">
          <mxGeometry x="1532" y="727.47" width="50" height="50" as="geometry" />
        </mxCell>
        <mxCell id="asT0IU54cs3RfqnLcP0r-22" style="edgeStyle=orthogonalEdgeStyle;rounded=0;orthogonalLoop=1;jettySize=auto;html=1;entryX=0;entryY=0.5;entryDx=0;entryDy=0;entryPerimeter=0;" parent="JcG0Pk85M2DYE7z6Ym7G-2" source="asT0IU54cs3RfqnLcP0r-21" target="asT0IU54cs3RfqnLcP0r-18" edge="1">
          <mxGeometry relative="1" as="geometry">
            <Array as="points">
              <mxPoint x="1557" y="805" />
            </Array>
          </mxGeometry>
        </mxCell>
        <mxCell id="asT0IU54cs3RfqnLcP0r-23" style="edgeStyle=orthogonalEdgeStyle;rounded=0;orthogonalLoop=1;jettySize=auto;html=1;entryX=0;entryY=0.5;entryDx=0;entryDy=0;entryPerimeter=0;" parent="JcG0Pk85M2DYE7z6Ym7G-2" source="JcG0Pk85M2DYE7z6Ym7G-48" target="asT0IU54cs3RfqnLcP0r-21" edge="1">
          <mxGeometry relative="1" as="geometry" />
        </mxCell>
        <mxCell id="asT0IU54cs3RfqnLcP0r-24" style="edgeStyle=orthogonalEdgeStyle;rounded=0;orthogonalLoop=1;jettySize=auto;html=1;entryX=0;entryY=0.5;entryDx=0;entryDy=0;entryPerimeter=0;" parent="JcG0Pk85M2DYE7z6Ym7G-2" source="asT0IU54cs3RfqnLcP0r-21" target="JcG0Pk85M2DYE7z6Ym7G-70" edge="1">
          <mxGeometry relative="1" as="geometry">
            <Array as="points">
              <mxPoint x="1557" y="665" />
            </Array>
          </mxGeometry>
        </mxCell>
      </root>
    </mxGraphModel>
  </diagram>
</mxfile>
